<svg id="Capa_1" data-name="Capa 1" xmlns="http://www.w3.org/2000/svg" viewBox="0 0 1886.56 828.26"><defs><style>.cls-1{fill:#e5252d;}.cls-2{fill:#e5262e;}.cls-3{fill:#fefefe;}</style></defs><title>Isotipo OrderNow</title><path class="cls-1" d="M436.74,124.23c200,0,369.11,135.61,411,329.6,36.33,168.22-42.62,343.26-195.75,434-199.78,118.36-463.22,50.83-579-148.4C-63.64,504.28,64.72,203.67,330,137.59,365,128.86,400.55,123.81,436.74,124.23Z" transform="translate(-17.73 -117.95)"/><path class="cls-1" d="M1378.77,443c-4.07,7-2.47,13.59-2.47,19.85q-.16,198.87-.08,397.73c0,39.8-13,56.11-52.35,63.77-25.89,5-51.17,2.69-74.15-11.55-13.29-8.23-21-19.91-21-36.36q.17-362.54.17-725.07c0-31.85,19.52-42.68,46.2-24.93,30.21,20.1,52.87,48.71,77.79,74.56q152.74,158.37,304.37,317.84c29,30.36,57.38,61.29,86.29,91.73,3.45,3.64,6.55,11.07,12.36,8.43,5.29-2.39,3.35-9.75,3.35-15.1,0-145.12.31-290.25-.34-435.37-.07-17,6.22-25,21.72-28.73,35.6-8.68,71.28-8.43,107-1.73,11.57,2.17,16.58,8.46,16.56,21.65q-.68,365-.27,730c0,13.16-1.6,26.07-14.38,32.42-13.89,6.9-26.55.77-37.59-8.36-5.87-4.86-11.39-10.19-16.78-15.58q-216.51-216.36-433-432.71C1394.73,458,1388.76,448.68,1378.77,443Z" transform="translate(-17.73 -117.95)"/><path class="cls-2" d="M947.22,531.78q0-190.65,0-381.28c0-14.92,15.9-23.68,29.4-16.41,3,1.61,3.25,4,3.31,6.7.09,3.27.06,6.55.06,9.82V916.45c0,14.71-16.61,24.08-29.56,16.43-6-3.52-3.07-9.91-3.08-14.91q-.26-169.37-.13-338.74Z" transform="translate(-17.73 -117.95)"/><path class="cls-3" d="M436.69,808.45c-158.07.06-283.2-124.64-281.39-280.38,1.39-119.35,89.07-226.25,211.29-257.59,147.25-37.77,301,48.53,341.67,191.77,42.66,150.26-54,306.69-209.93,339.6C478,806.14,457.53,809,436.69,808.45Z" transform="translate(-17.73 -117.95)"/></svg>