<svg id="Capa_1" data-name="Capa 1" xmlns="http://www.w3.org/2000/svg" viewBox="0 0 1903.71 774.65"><defs><style>.cls-1{fill:#e5252d;}.cls-2{fill:#e5262e;}</style></defs><title>OrderNow_Logo</title><path class="cls-1" d="M1207.86,262.81c-2.42,4.14-1.46,8.06-1.47,11.78q-.09,118,0,236c0,23.62-7.7,33.29-31.07,37.84-15.36,3-30.36,1.59-44-6.85-7.88-4.89-12.43-11.82-12.43-21.58q.11-215.13.1-430.25c0-18.9,11.59-25.33,27.42-14.79,17.92,11.92,31.37,28.9,46.16,44.24q90.63,94,180.61,188.6c17.2,18,34,36.37,51.2,54.44,2.05,2.15,3.89,6.56,7.34,5,3.13-1.42,2-5.79,2-9,0-86.12.18-172.23-.21-258.35,0-10.07,3.69-14.81,12.89-17,21.13-5.14,42.3-5,63.52-1,6.87,1.28,9.84,5,9.83,12.84q-.4,216.58-.16,433.17c0,7.81-1,15.47-8.53,19.24-8.25,4.09-15.76.45-22.31-5-3.48-2.88-6.76-6-10-9.24q-128.48-128.38-257-256.77C1217.33,271.7,1213.79,266.17,1207.86,262.81Z" transform="translate(-8.11 -69.92)"/><path class="cls-2" d="M951.78,315.48V89.23c0-8.85,9.44-14,17.45-9.74,1.77,1,1.92,2.37,2,4,0,1.94,0,3.88,0,5.83V543.74c0,8.73-9.86,14.29-17.54,9.75-3.55-2.09-1.83-5.88-1.83-8.85q-.15-100.5-.08-201Z" transform="translate(-8.11 -69.92)"/><path class="cls-1" d="M892.76,269.23C867.89,154.11,767.55,73.65,648.87,73.64c-21.48-.25-42.56,2.75-63.35,7.93C428.11,120.78,352,299.16,433,438.68c68.7,118.23,225,158.3,343.57,88.06C867.47,472.91,914.32,369.05,892.76,269.23ZM685.41,475.74c-12,2.54-24.2,4.24-36.57,3.91-93.8,0-168-74-167-166.37.83-70.83,52.86-134.26,125.38-152.86C694.62,138,785.86,189.23,810,274.22,835.3,363.38,777.94,456.21,685.41,475.74Z" transform="translate(-8.11 -69.92)"/><path class="cls-1" d="M1676.54,664.68c9.52,0,18.81.31,28.06-.12,5.12-.23,5.82,3.11,6.87,6.48,8.56,27.41,17,54.86,25.69,82.23,1.49,4.71,2.06,10,6,13.74,3.78-2.78,4.66-7.07,6.21-10.85q18.11-44,36-88.07a43.45,43.45,0,0,1,2.83-6.59c3.81-6.17,8.94-6,12,.61,2.65,5.68,4.5,11.72,6.82,17.56q15.24,38.36,30.56,76.69a30.52,30.52,0,0,0,2.78,5.61c2.95,4.39,5.82,3.82,7.54-.85,2.29-6.16,4.18-12.47,6.06-18.77,6.94-23.22,14.1-46.38,20.51-69.75,1.81-6.62,4.87-8.44,11.25-8,8.33.51,16.73.12,26.08.12-6.93,21.57-13.52,42.3-20.23,63q-16.75,51.66-33.61,103.27c-1.28,3.91-1.7,9-7,9.16-4.64.1-5.92-4.66-7.45-8.07q-20.79-46.28-41.32-92.64c-.6-1.37-1.11-2.79-1.84-4.09-1.85-3.32-2.54-8.79-6.66-8.86-4.92-.08-5.38,5.73-7,9.37q-22.07,50.6-43.86,101.29c-1.41,3.27-2.41,7.67-6.65,7.46-3.63-.17-4.72-4.26-5.71-7.37q-26.9-84.68-53.67-169.41A17.87,17.87,0,0,1,1676.54,664.68Z" transform="translate(-8.11 -69.92)"/><path class="cls-1" d="M1340.74,775.1c0-35.82.41-70.8-.25-103.75-.21-10.05-.75-13.41,8.24-13.26.33,0,10.27-.61,10.61-.64,8-.59,8.62-.67,8.62,19.91q0,76.74,0,153.46c0,2.11.16,4.39.1,6.42a3.84,3.84,0,0,1-6.35,2.76c-4-3.51-8.27-9.42-10.73-11.88q-49.15-49.07-98.26-98.19c-2.42-2.42-12.43-12.14-16.51-15.95v66.85c0,16.19.08,32.38,0,48.57-.07,10-1.38,15-12.59,15.17-11.63.17-14.87-5-14.89-15.3q-.11-81.59,0-163.17c0-4.06-1.26-9.24,3.56-11.21,5.25-2.15,9.26,1.61,12.66,5.13q34.43,35.58,68.68,71.32C1307.48,744.42,1325,760.55,1340.74,775.1Z" transform="translate(-8.11 -69.92)"/><path class="cls-1" d="M706.54,749.55c0-28.65.18-57.3-.13-85.94-.07-6.58.9-9.49,8.24-9.34,34.28.71,68.57.91,102.85,1,5.54,0,7,1.81,7.15,7.5.41,21.14.62,21.13-19.19,21.13-20.71,0-41.43.39-62.13-.19-7.91-.22-9.92,2.54-9.56,10.29a342.23,342.23,0,0,1,0,36.38c-.48,8,2.43,9.38,9.33,9.24,21-.45,42.07.08,63.11-.31,6.12-.12,7.52,1.92,7.56,8,.13,20.48.36,20.48-19.71,20.48-17.48,0-35,.22-52.43-.13-5.7-.11-8.13,1.15-7.81,7.7.51,10.76.52,21.58,0,32.34-.34,6.88,2.12,8.53,8.33,8.45,24.27-.32,48.55.14,72.82-.3,7.31-.14,10,1.47,9.78,9.79-.56,18.7-.1,18.72-17.65,18.72-20.39,0-40.78.13-61.17-.06-10.32-.1-19.92.57-30.34.15-6.69-.28-9.25.2-9.16-6.91C706.75,808.2,706.54,778.87,706.54,749.55Z" transform="translate(-8.11 -69.92)"/><path class="cls-1" d="M101.18,656.13c-51.5.34-93.58,43.07-93.07,94.49a94.38,94.38,0,1,0,188.75-.86C196.56,696.86,154.57,655.77,101.18,656.13Zm1.32,161.23c-36.25,0-67-30.62-67.1-66.74a67.12,67.12,0,0,1,134.24-.84C169.88,786.64,139.32,817.4,102.5,817.36Z" transform="translate(-8.11 -69.92)"/><path class="cls-1" d="M1528.73,656.13c-51.32.12-93.6,42.32-94.08,93.9-.48,51.88,41.85,94.41,94.07,94.54,53,.13,94.39-40.9,94.42-93.55C1623.18,697.92,1581.47,656,1528.73,656.13Zm.83,161.23c-37.12.06-68.17-30.68-67.68-67,.49-36.85,31.54-67.48,68-67,36.64.44,66.13,30.5,66.07,67.37A66.22,66.22,0,0,1,1529.56,817.36Z" transform="translate(-8.11 -69.92)"/><path class="cls-1" d="M630.62,723c-8.29-40.29-33.73-64.27-70.62-67.42-25.82-2.21-51.75-1.11-77.63-.46-6.55.17-8.24,3.06-8.13,10.09.45,28.21.19,56.44.19,84.65,0,28.57.26,57.14-.18,85.7-.12,7.59,2.1,9.12,8.69,9,24.93-.41,49.87,0,74.8-.22,18.92-.19,35.59-7.15,48.85-21.82C632,794.35,638.26,760.17,630.62,723Zm-43.44,78.75c-8.27,8.74-18.23,13.1-29.62,13.3-16.16.29-32.33-.21-48.49.23-5.9.16-7.74-1.46-7.59-8,.43-19.13.15-38.26.15-57.4,0-19.48.17-39-.11-58.43-.08-5.73,1.25-8,7-7.78,16.14.63,32.31.28,48.44,1.08,21.57,1.08,36.15,13.2,44.16,34.6C611.73,747.77,605.84,782,587.18,801.75Z" transform="translate(-8.11 -69.92)"/><path class="cls-1" d="M412.5,842c-14.72-17.51-29.29-35.16-44.26-52.44-4.16-4.8-4.79-6.67,1.35-10.63,23.89-15.43,34.53-47.51,26.6-77.42-7.5-28.28-30.29-46-59.77-46.94-18.75-.61-37.49-.22-56.24-.13-7.67,0-9.7,2.52-9.65,10.44.34,53,.18,106.09.18,159.13,0,20.79,0,20.53,19.69,20.53,5.84,0,7.9-1.37,7.67-7.81-.49-13.49.05-27-.25-40.54-.11-5.25,1.44-7.2,6.58-7,8.73.34,17.49.4,26.21,0,5.09-.25,8.34,1.58,11.43,5.71,11.17,14.88,22.7,29.48,34,44.23,2.26,2.93,4.23,5.55,8.56,5.38,9.3-.36,18.63-.11,29.08-.11A25.84,25.84,0,0,0,412.5,842Zm-66.43-83c-14.32,3.65-29,1.37-43.49,1.79-5.14.14-4.36-4.14-4.39-7.31-.1-10.79-.14-32.34-.27-32.34,0-10.8.17-21.61-.08-32.4-.11-4.86,1.59-6.47,6.19-6.4,12.92.21,25.88-.34,38.7,1.64,16.63,2.58,27.67,16.07,28.69,34.35C372.5,737.74,362,755,346.07,759.05Z" transform="translate(-8.11 -69.92)"/><path class="cls-1" d="M998,789.88c-4.22-4.87-5.31-7,1.29-11.31,22.66-14.68,33.21-45.63,26.57-74.71-6.2-27.15-26.52-45.47-54.42-48.35-20.64-2.13-41.35-.89-62-.84-7.74,0-9.63,2.48-9.58,10.33.33,53,.17,105.93.17,158.9,0,10.13.36,16.14.55,19.79a.87.87,0,0,0,.83.85c4.51.15,16.36-.3,25.56-.44a.5.5,0,0,0,.47-.5c0-1,0-1.7-.09-6.53-.35-13.82.06-27.66-.2-41.49-.1-5.26,1.63-6.76,7.35-6.24a138.64,138.64,0,0,0,25.2-.08c5.62-.52,8.83,1.74,12,5.89,10.83,14.28,21.93,28.35,32.9,42.52,2.22,2.87,4,5.94,8.39,5.83,9.3-.24,18.6-.08,30.46-.08C1027.08,824.15,1012.7,806.85,998,789.88Zm-26.26-30.07c-13.16,2.44-26.49.59-39.72,1.21-5,.23-4.86-3-4.84-6.54.06-11.13,0-22.26,0-33.4,0-10.79.1-21.59,0-32.38-.06-4,.77-6.2,5.29-6.13,12.93.2,25.91-.36,38.75,1.55,17.67,2.63,29.35,17.49,29.52,36.85S988.92,756.63,971.72,759.81Z" transform="translate(-8.11 -69.92)"/></svg>