<svg id="Capa_1" data-name="Capa 1" xmlns="http://www.w3.org/2000/svg" viewBox="0 0 1903.71 774.66"><defs><style>.cls-1{fill:#e5252d;}.cls-2{fill:#e5262e;}.cls-3{fill:#fefefe;}</style></defs><title>OrderNow_Logo</title><path class="cls-1" d="M645,73.64c118.68,0,219,80.47,243.89,195.59,21.56,99.82-25.29,203.68-116.16,257.51C654.16,597,497.84,556.91,429.14,438.68c-81.08-139.52-4.92-317.9,152.49-357.11C602.42,76.39,623.5,73.39,645,73.64Z" transform="translate(0 -69.92)"/><path class="cls-1" d="M1204,262.81c-2.42,4.14-1.46,8.06-1.47,11.78q-.09,118,0,236c0,23.62-7.7,33.29-31.07,37.84-15.36,3-30.36,1.59-44-6.85C1119.51,536.7,1115,529.77,1115,520q.11-215.13.1-430.25c0-18.9,11.59-25.33,27.42-14.79,17.92,11.92,31.37,28.9,46.16,44.24q90.63,94,180.61,188.6c17.2,18,34,36.37,51.2,54.44,2,2.15,3.89,6.56,7.34,5,3.13-1.42,2-5.79,2-9,0-86.12.18-172.23-.21-258.35,0-10.07,3.69-14.81,12.89-17,21.13-5.14,42.3-5,63.52-1,6.87,1.28,9.84,5,9.83,12.84q-.4,216.58-.16,433.17c0,7.81-1,15.47-8.53,19.24-8.25,4.09-15.76.45-22.31-5-3.48-2.88-6.76-6-10-9.24q-128.47-128.38-257-256.77C1213.44,271.7,1209.9,266.17,1204,262.81Z" transform="translate(0 -69.92)"/><path class="cls-1" d="M1668.43,662.93c9.52,0,18.81.31,28.06-.12,5.12-.23,5.82,3.11,6.87,6.48,8.56,27.41,17,54.86,25.69,82.23,1.49,4.71,2.06,10,6,13.73,3.78-2.77,4.66-7.07,6.21-10.84q18.11-44,36-88.08a43.31,43.31,0,0,1,2.83-6.59c3.81-6.17,8.94-6,12,.61,2.65,5.68,4.5,11.73,6.82,17.57q15.24,38.36,30.56,76.69a30.21,30.21,0,0,0,2.78,5.61c3,4.39,5.82,3.81,7.54-.85,2.29-6.17,4.18-12.48,6.06-18.78,6.94-23.22,14.1-46.37,20.51-69.74,1.81-6.62,4.87-8.44,11.25-8.05,8.33.51,16.73.13,26.08.13-6.93,21.57-13.52,42.3-20.23,63q-16.76,51.65-33.61,103.27c-1.28,3.9-1.7,9-7,9.15-4.64.1-5.92-4.65-7.45-8.07q-20.79-46.26-41.32-92.64c-.6-1.36-1.11-2.79-1.84-4.09-1.85-3.32-2.54-8.78-6.66-8.85-4.92-.08-5.38,5.73-7,9.37q-22.07,50.6-43.86,101.29c-1.41,3.27-2.41,7.66-6.65,7.46-3.63-.17-4.72-4.26-5.71-7.37q-26.89-84.69-53.68-169.41A19.15,19.15,0,0,1,1668.43,662.93Z" transform="translate(0 -69.92)"/><path class="cls-1" d="M1332.63,773.16c0-35.83.41-70.8-.25-103.76-.21-10-.75-13.41,8.24-13.26.33,0,10.27-.61,10.61-.63,8-.59,8.62-.68,8.62,19.91q0,76.73,0,153.46c0,2.1.16,4.39.1,6.42a3.83,3.83,0,0,1-6.35,2.75c-4-3.51-8.27-9.42-10.73-11.88q-49.15-49.06-98.26-98.18c-2.42-2.42-12.43-12.14-16.51-16v66.86c0,16.18.08,32.37,0,48.56-.07,10-1.38,15-12.59,15.17-11.63.17-14.87-5-14.89-15.29q-.11-81.58,0-163.17c0-4.07-1.26-9.24,3.56-11.21,5.25-2.15,9.26,1.61,12.66,5.12q34.42,35.59,68.68,71.32C1299.37,742.48,1316.9,758.61,1332.63,773.16Z" transform="translate(0 -69.92)"/><path class="cls-1" d="M188.75,749.76A94.38,94.38,0,1,1,0,750.62c-.51-51.42,41.57-94.15,93.07-94.49C146.46,655.77,188.45,696.86,188.75,749.76Z" transform="translate(0 -69.92)"/><path class="cls-1" d="M1615,749.7c0,52.66-41.44,93.69-94.42,93.56-52.22-.13-94.55-42.67-94.07-94.54.48-51.58,42.76-93.78,94.08-93.91C1573.36,654.69,1615.07,696.61,1615,749.7Z" transform="translate(0 -69.92)"/><path class="cls-1" d="M466.31,747.33c0-26.22.27-52.45-.18-78.66-.11-6.54,1.58-9.22,8.13-9.38,25.88-.61,51.81-1.62,77.63.42,36.89,2.93,62.33,25.21,70.61,62.66,7.65,34.54,1.43,66.29-24,92.47-13.26,13.63-29.93,20.1-48.85,20.27-24.93.23-49.87-.17-74.8.21-6.59.11-8.81-1.31-8.69-8.36C466.58,800.42,466.32,773.87,466.31,747.33Z" transform="translate(0 -69.92)"/><path class="cls-1" d="M405.6,839.05c-10.45,0-19.78-.24-29.08.11-4.33.16-6.3-2.35-8.56-5.16-11.33-14.12-22.86-28.1-34-42.36-3.09-3.95-6.34-5.7-11.43-5.46-8.72.41-17.48.35-26.21,0-5.14-.19-6.69,1.67-6.58,6.7.3,12.94-.24,25.9.25,38.83.23,6.17-1.83,7.47-7.67,7.47-19.69,0-19.69.26-19.69-19.65,0-50.81.16-101.61-.18-152.41-.05-7.58,2-10,9.65-10,18.75-.09,37.49-.46,56.24.12,29.48.92,52.27,17.87,59.77,45,7.93,28.64-2.71,59.37-26.6,74.14-6.14,3.79-5.51,5.59-1.35,10.19,15,16.54,29.54,33.44,44.26,50.21A25,25,0,0,1,405.6,839.05Z" transform="translate(0 -69.92)"/><path class="cls-1" d="M1035.25,838.16c-11.86,0-21.16-.16-30.46.07-4.36.11-6.17-2.84-8.39-5.59-11-13.59-22.07-27.08-32.9-40.78-3.14-4-6.35-6.15-12-5.65a145.26,145.26,0,0,1-25.2.08c-5.72-.5-7.45.94-7.35,6,.26,13.26-.15,26.54.2,39.79.12,4.63.1,5.35.09,6.26a.47.47,0,0,1-.47.48c-9.2.14-21,.57-25.56.43a.87.87,0,0,1-.83-.82c-.19-3.5-.55-9.26-.55-19,0-50.8.16-101.6-.17-152.39-.05-7.53,1.84-9.89,9.58-9.91,20.69,0,41.4-1.24,62,.8,27.9,2.76,48.22,20.34,54.42,46.38,6.64,27.89-3.91,57.57-26.57,71.65-6.6,4.1-5.51,6.18-1.29,10.85C1004.59,803.08,1019,819.67,1035.25,838.16Z" transform="translate(0 -69.92)"/><path class="cls-1" d="M698.43,747.74c0-27.5.18-55-.13-82.51-.07-6.31.9-9.1,8.24-9,34.28.69,68.57.88,102.85,1,5.54,0,7,1.73,7.15,7.19.41,20.3.62,20.29-19.19,20.29-20.71,0-41.43.37-62.13-.19-7.91-.21-9.92,2.44-9.56,9.89a315.33,315.33,0,0,1,0,34.92c-.48,7.7,2.43,9,9.33,8.87,21-.43,42.07.08,63.11-.3,6.12-.11,7.52,1.85,7.56,7.68.13,19.67.36,19.66-19.71,19.66-17.48,0-35,.22-52.43-.12-5.7-.11-8.13,1.11-7.81,7.39.51,10.33.52,20.72,0,31-.34,6.61,2.12,8.19,8.33,8.11,24.27-.31,48.55.14,72.82-.29,7.31-.13,10,1.42,9.78,9.4-.56,18-.1,18-17.65,18-20.39,0-40.78.13-61.17,0-10.32-.1-19.92.55-30.34.14-6.69-.27-9.25.2-9.16-6.63C698.64,804.05,698.43,775.9,698.43,747.74Z" transform="translate(0 -69.92)"/><path class="cls-2" d="M947.89,315.48V89.23c0-8.85,9.44-14,17.45-9.74,1.77,1,1.92,2.37,2,4,0,1.94,0,3.88,0,5.83V543.74c0,8.73-9.86,14.29-17.54,9.75-3.55-2.09-1.83-5.88-1.83-8.85q-.15-100.5-.08-201Z" transform="translate(0 -69.92)"/><path class="cls-3" d="M645,479.65c-93.8,0-168.05-74-167-166.37.83-70.83,52.86-134.26,125.38-152.86C690.73,138,782,189.23,806.1,274.22c25.31,89.16-32.05,182-124.58,201.52C669.48,478.28,657.32,480,645,479.65Z" transform="translate(0 -69.92)"/><path class="cls-3" d="M161.53,749.78c.24,36.86-30.32,67.61-67.14,67.58-36.25,0-67-30.62-67.1-66.74a67.12,67.12,0,0,1,134.24-.84Z" transform="translate(0 -69.92)"/><path class="cls-3" d="M1587.82,749.39a66.22,66.22,0,0,1-66.37,66.66c-37.12.05-68.17-30.68-67.68-67,.49-36.86,31.54-67.48,68-67.05C1558.39,682.45,1587.88,712.52,1587.82,749.39Z" transform="translate(0 -69.92)"/><path class="cls-3" d="M493.52,747.32c0-18.1.17-36.21-.11-54.3-.08-5.32,1.25-7.43,6.95-7.22,16.14.58,32.31.25,48.44,1C570.37,687.8,585,699.07,593,719c10.66,26.43,4.77,58.28-13.89,76.59a41.9,41.9,0,0,1-29.62,12.36c-16.16.27-32.34-.19-48.49.21-5.9.15-7.74-1.35-7.59-7.46C493.8,782.88,493.52,765.1,493.52,747.32Z" transform="translate(0 -69.92)"/><path class="cls-3" d="M289.81,721.05c0-10.35.17-20.7-.08-31-.11-4.65,1.59-6.19,6.18-6.12,12.93.19,25.89-.33,38.71,1.57,16.63,2.46,27.67,15.38,28.69,32.89,1.07,18.55-9.42,35-25.35,38.95-14.32,3.5-29,1.31-43.49,1.71-5.14.15-4.2-3.91-4.23-7-.1-10.34,0-20.67,0-31Z" transform="translate(0 -69.92)"/><path class="cls-3" d="M919.07,720.83c0-10.36.1-20.71-.05-31.07-.06-3.86.77-5.94,5.29-5.87,12.93.19,25.91-.35,38.75,1.49,17.67,2.52,29.35,16.77,29.52,35.34s-11.77,34.19-29,37.25c-13.16,2.33-26.49.56-39.72,1.15-5,.23-4.86-2.83-4.84-6.26C919.11,742.18,919.07,731.5,919.07,720.83Z" transform="translate(0 -69.92)"/></svg>